<svg width="100" height="100" viewBox="0 0 100 100" fill="none" xmlns="http://www.w3.org/2000/svg">
<circle cx="50" cy="50" r="49" fill="white" stroke="#ADB9C5" stroke-width="2"/>
<path d="M47.8738 56.0227V55.8565C47.8923 54.093 48.0769 52.6896 48.4278 51.6463C48.7786 50.603 49.2772 49.7582 49.9235 49.1119C50.5698 48.4656 51.3454 47.87 52.2502 47.3253C52.795 46.9929 53.2843 46.6005 53.7183 46.1481C54.1522 45.6864 54.4938 45.1555 54.7431 44.5554C55.0016 43.9553 55.1309 43.2905 55.1309 42.5611C55.1309 41.6562 54.9185 40.8714 54.4938 40.2067C54.0691 39.5419 53.5013 39.0295 52.7904 38.6694C52.0794 38.3093 51.29 38.1293 50.4221 38.1293C49.665 38.1293 48.9356 38.2862 48.2339 38.6001C47.5322 38.9141 46.9459 39.408 46.475 40.082C46.0041 40.756 45.7318 41.6378 45.6579 42.7273H42.1678C42.2417 41.1577 42.6479 39.8143 43.3866 38.6971C44.1345 37.5799 45.1178 36.7259 46.3365 36.1349C47.5645 35.544 48.9264 35.2486 50.4221 35.2486C52.0471 35.2486 53.4597 35.5717 54.66 36.218C55.8695 36.8643 56.8021 37.7507 57.4576 38.8771C58.1224 40.0035 58.4548 41.2869 58.4548 42.7273C58.4548 43.7429 58.2978 44.6616 57.9839 45.4833C57.6792 46.305 57.236 47.0391 56.6543 47.6854C56.0819 48.3317 55.3894 48.9041 54.5769 49.4027C53.7644 49.9105 53.1135 50.446 52.6242 51.0092C52.1348 51.5632 51.7793 52.2234 51.5578 52.9897C51.3362 53.756 51.2161 54.7116 51.1977 55.8565V56.0227H47.8738ZM49.6465 64.2216C48.9633 64.2216 48.377 63.9769 47.8877 63.4876C47.3983 62.9982 47.1536 62.4119 47.1536 61.7287C47.1536 61.0455 47.3983 60.4592 47.8877 59.9698C48.377 59.4805 48.9633 59.2358 49.6465 59.2358C50.3298 59.2358 50.9161 59.4805 51.4054 59.9698C51.8948 60.4592 52.1394 61.0455 52.1394 61.7287C52.1394 62.1811 52.024 62.5966 51.7932 62.9751C51.5716 63.3537 51.2715 63.6584 50.893 63.8892C50.5237 64.1108 50.1082 64.2216 49.6465 64.2216Z" fill="#ADB9C5"/>
</svg>
