<svg id="Capa_2" data-name="Capa 2" xmlns="http://www.w3.org/2000/svg" viewBox="0 0 130 45.97"><defs><style>.cls-1{fill:#ff7500;}.cls-2{fill:#617582;}.cls-3{fill:#304b58;}</style></defs><title>logo_alissta</title><path class="cls-1" d="M97.73,43.07l-5.61,0,5.53-15.67H89.22L91,22.55h22.19l-1.72,4.88h-8.18L97.73,43.1Z" transform="translate(-13.19 -8.95)"/><path class="cls-2" d="M88.12,33.09A82.35,82.35,0,0,0,62.3,41.46l-2.38,7.41c9.71-6.09,19.16-10.3,28.09-12.5l.47-.11.39-1.63.3-1.68Z" transform="translate(-13.19 -8.95)"/><path class="cls-3" d="M87.29,35.3A38.88,38.88,0,0,0,79.84,25l-.32-.3.91-4.61,1,.79a33.71,33.71,0,0,1,8,9.54l.1.16L88.8,35l-.45,2.28Z" transform="translate(-13.19 -8.95)"/><path class="cls-1" d="M101.91,9l-.65.37A113.56,113.56,0,0,1,70.53,21.5l-.23.05v.06h0l-.61,3,.67.2c5.51,1.72,10.7,6.37,15.44,13.84a84.31,84.31,0,0,0-25.38,8.67L58,54.92l.7-.44C68.51,48.25,78.09,44,87.14,41.74l.45-.11,0,0,.87-4.87.21-1.24-.16-.25c-3.78-5.6-7.87-9.52-12.21-11.73a102.07,102.07,0,0,0,23.47-8Z" transform="translate(-13.19 -8.95)"/><path class="cls-2" d="M100.85,12.25l-.66.34A91.18,91.18,0,0,1,80.9,20.08l-.49.12-.9,4.51,1.12-.16a77.76,77.76,0,0,0,17.82-4.86Z" transform="translate(-13.19 -8.95)"/><path class="cls-3" d="M134,26.69,128.21,43.1H111a2.46,2.46,0,0,1-2.11-.93,3.36,3.36,0,0,1-.57-2,4.37,4.37,0,0,1,.26-1.52l2.21-6.37A3.17,3.17,0,0,1,114,30h13.22l.38-1.19a1.16,1.16,0,0,0,.08-.43c0-.6-.38-.9-1.16-.9H112.42l1.69-4.83H131.5a2.41,2.41,0,0,1,2.72,2.73A3.85,3.85,0,0,1,134,26.69Zm-8.46,8.1h-8.85a1.54,1.54,0,0,0-1.59,1.1l-.33.88a2.2,2.2,0,0,0-.11.63.77.77,0,0,0,.88.86h8.79Zm-86.62-8.1L33.12,43.1H15.86a2.44,2.44,0,0,1-2.1-.93,3.36,3.36,0,0,1-.57-2,4.37,4.37,0,0,1,.26-1.52l2.21-6.37A3.17,3.17,0,0,1,18.93,30H32.14l.39-1.19a1.41,1.41,0,0,0,.08-.44c0-.59-.39-.89-1.16-.89H17.33L19,22.6H36.41a2.41,2.41,0,0,1,2.73,2.73A4.09,4.09,0,0,1,38.91,26.69Zm-8.46,8.1H21.6A1.53,1.53,0,0,0,20,35.89l-.34.88a2.16,2.16,0,0,0-.1.63.77.77,0,0,0,.87.86h8.8Zm24.71,3.47-1.7,4.84H34.2l7-20.5h5.55L41.38,38.26ZM67.43,22.55,60.18,43.1H54.57l7.25-20.55Z" transform="translate(-13.19 -8.95)"/><path class="cls-1" d="M73.44,49.68c.06-.19.17-.35.39-.35s.35.17.27.45l-.55,2.07a2.05,2.05,0,0,1-.51,1,1.56,1.56,0,0,1-1.18.42A2.73,2.73,0,0,1,70.55,53a.29.29,0,0,1,.1-.57.39.39,0,0,1,.21.06,1.84,1.84,0,0,0,1,.27,1,1,0,0,0,.73-.26,1.31,1.31,0,0,0,.31-.61l.06-.18a1.43,1.43,0,0,1-1,.45,1.08,1.08,0,0,1-1.16-1.08,1.73,1.73,0,0,1,1.66-1.74,1,1,0,0,1,1,.6Zm-.25.88a.67.67,0,0,0-.73-.67,1,1,0,0,0-1,1,.63.63,0,0,0,.69.64A1.06,1.06,0,0,0,73.19,50.56Zm3.34,1.13a.51.51,0,0,1,.22-.06.25.25,0,0,1,.26.26.28.28,0,0,1-.13.24,1.69,1.69,0,0,1-1,.31,1.24,1.24,0,0,1-1.36-1.31,1.82,1.82,0,0,1,1.76-1.82,1.11,1.11,0,0,1,1.2,1.16,1.69,1.69,0,0,1,0,.33c-.05.2-.15.31-.34.31H75.16v.06a.69.69,0,0,0,.77.71A1,1,0,0,0,76.53,51.69Zm.25-1a.58.58,0,0,0,0-.21.54.54,0,0,0-.6-.57,1.07,1.07,0,0,0-1,.78Zm2.65.89c0-.15-.14-.25-.44-.37-.5-.21-.87-.4-.87-.86a1,1,0,0,1,1.18-1,2,2,0,0,1,1,.28.31.31,0,0,1,.16.26.29.29,0,0,1-.29.3.34.34,0,0,1-.19-.07,1.22,1.22,0,0,0-.7-.23c-.3,0-.46.14-.46.34s.14.25.48.39.82.4.82.84a1.07,1.07,0,0,1-1.2,1,2,2,0,0,1-1.16-.39.32.32,0,0,1-.12-.25.28.28,0,0,1,.27-.29.32.32,0,0,1,.2.07,1.36,1.36,0,0,0,.87.32C79.22,51.9,79.43,51.76,79.43,51.54Zm2.13-2.68a.39.39,0,0,1,.38-.34c.23,0,.35.16.28.44l-.12.41h.46a.28.28,0,0,1,.29.29.29.29,0,0,1-.29.3h-.62l-.38,1.45a1.22,1.22,0,0,0,0,.17c0,.15.11.23.29.23h.12a.24.24,0,0,1,.27.26.27.27,0,0,1-.19.28,1.14,1.14,0,0,1-.46.08c-.49,0-.76-.24-.76-.59a1.48,1.48,0,0,1,0-.35L81.26,50h-.08a.3.3,0,0,1-.27-.3.29.29,0,0,1,.29-.29h.22Zm2,3.2a.41.41,0,0,1-.38.34c-.23,0-.35-.17-.28-.44l.61-2.28a.41.41,0,0,1,.38-.35c.24,0,.36.17.28.45Zm.53-3.12c-.22,0-.38-.14-.34-.33l0-.07a.42.42,0,0,1,.45-.31c.22,0,.37.14.33.32v.07A.45.45,0,0,1,84.13,48.94Zm.51,2.13a1.8,1.8,0,0,1,1.76-1.76,1.32,1.32,0,0,1,1.41,1.37,1.8,1.8,0,0,1-1.75,1.76A1.33,1.33,0,0,1,84.64,51.07Zm2.48-.37a.73.73,0,0,0-.76-.8,1.14,1.14,0,0,0-1,1.15.72.72,0,0,0,.77.79A1.13,1.13,0,0,0,87.12,50.7Zm0-1.84a.65.65,0,0,1-.42.16c-.11,0-.18-.05-.18-.13a.17.17,0,0,1,0-.13l.46-.5a.35.35,0,0,1,.27-.16c.18,0,.42.12.42.24s0,.1-.11.16Zm2.35.77,0,.12a1.32,1.32,0,0,1,.91-.44.84.84,0,0,1,.91.89,2,2,0,0,1-.09.53l-.35,1.33a.41.41,0,0,1-.38.34c-.23,0-.35-.17-.28-.44l.34-1.26a1.54,1.54,0,0,0,0-.3c0-.3-.19-.47-.52-.47a.91.91,0,0,0-.83.75l-.37,1.38a.4.4,0,0,1-.38.34c-.22,0-.35-.17-.28-.44l.61-2.28a.41.41,0,0,1,.4-.35A.28.28,0,0,1,89.51,49.63Z" transform="translate(-13.19 -8.95)"/><path class="cls-3" d="M95.21,52.08l0-.11a1.29,1.29,0,0,1-1,.46.83.83,0,0,1-.91-.82c0-.68.57-1.08,1.32-1.08a3.23,3.23,0,0,1,.93.15l0,0a1.86,1.86,0,0,0,0-.26c0-.27-.19-.45-.66-.45a2.11,2.11,0,0,0-.6.09h-.11a.27.27,0,0,1-.28-.28.29.29,0,0,1,.22-.27,2.88,2.88,0,0,1,.9-.14c.79,0,1.2.34,1.2.93a2.12,2.12,0,0,1-.06.43l-.36,1.37a.43.43,0,0,1-.39.34A.26.26,0,0,1,95.21,52.08Zm.24-.86,0-.13a2.28,2.28,0,0,0-.73-.12c-.43,0-.73.22-.73.56s.19.41.49.41A1,1,0,0,0,95.45,51.22Zm4-2.36a.39.39,0,0,1,.38-.34c.23,0,.35.16.28.44l-.12.41h.46a.28.28,0,0,1,.29.29.29.29,0,0,1-.29.3H99.8l-.38,1.45a1.22,1.22,0,0,0,0,.17c0,.15.11.23.29.23h.12a.24.24,0,0,1,.27.26.27.27,0,0,1-.19.28,1.14,1.14,0,0,1-.46.08c-.49,0-.76-.24-.76-.59a1.48,1.48,0,0,1,0-.35L99.12,50H99a.3.3,0,0,1-.27-.3.29.29,0,0,1,.29-.29h.21Zm3.27,3.25,0-.13a1.29,1.29,0,0,1-.91.45.85.85,0,0,1-.92-.9A2.07,2.07,0,0,1,101,51l.35-1.33a.41.41,0,0,1,.38-.35c.23,0,.35.17.28.45L101.66,51a1.76,1.76,0,0,0,0,.31.46.46,0,0,0,.52.47.91.91,0,0,0,.83-.75l.36-1.38a.41.41,0,0,1,.39-.35c.23,0,.35.17.27.45l-.6,2.28a.41.41,0,0,1-.4.34A.27.27,0,0,1,102.69,52.11Zm5.09,0,0-.11a1.26,1.26,0,0,1-1,.46.83.83,0,0,1-.9-.82c0-.68.56-1.08,1.31-1.08a3.25,3.25,0,0,1,.94.15v0a1,1,0,0,0,0-.26c0-.27-.2-.45-.67-.45A2.09,2.09,0,0,0,107,50h-.12a.27.27,0,0,1-.27-.28.29.29,0,0,1,.21-.27,2.94,2.94,0,0,1,.91-.14c.78,0,1.2.34,1.2.93a2.12,2.12,0,0,1-.06.43l-.37,1.37a.41.41,0,0,1-.38.34C107.8,52.4,107.76,52.23,107.78,52.08Zm.23-.86,0-.13a2.17,2.17,0,0,0-.72-.12c-.43,0-.73.22-.73.56s.19.41.49.41A1,1,0,0,0,108,51.22Zm2,.84a.42.42,0,0,1-.39.34c-.23,0-.35-.17-.28-.44l.92-3.43a.41.41,0,0,1,.39-.34c.23,0,.35.17.27.44Zm2.41.38A1.31,1.31,0,0,1,111,51.1a1.81,1.81,0,0,1,1.78-1.79,1.32,1.32,0,0,1,1,.43A.43.43,0,0,1,114,50a.32.32,0,0,1-.33.32.3.3,0,0,1-.24-.11.74.74,0,0,0-.65-.33,1.16,1.16,0,0,0-1,1.2.71.71,0,0,0,.71.75,1,1,0,0,0,.63-.23.39.39,0,0,1,.21-.08.29.29,0,0,1,.17.52A1.51,1.51,0,0,1,112.41,52.44Zm3.5-.36,0-.11a1.26,1.26,0,0,1-1,.46.83.83,0,0,1-.9-.82c0-.68.56-1.08,1.31-1.08a3.25,3.25,0,0,1,.94.15v0a1,1,0,0,0,0-.26c0-.27-.2-.45-.67-.45a2.09,2.09,0,0,0-.59.09H115a.27.27,0,0,1-.27-.28.29.29,0,0,1,.21-.27,2.94,2.94,0,0,1,.91-.14c.78,0,1.2.34,1.2.93a2.12,2.12,0,0,1-.06.43l-.37,1.37a.41.41,0,0,1-.38.34C115.93,52.4,115.89,52.23,115.91,52.08Zm.23-.86,0-.13a2.17,2.17,0,0,0-.72-.12c-.43,0-.73.22-.73.56s.19.41.49.41A1,1,0,0,0,116.14,51.22Zm2.6-1.59,0,.12a1.32,1.32,0,0,1,.92-.44.84.84,0,0,1,.91.89,2.56,2.56,0,0,1-.09.53l-.35,1.33a.41.41,0,0,1-.39.34c-.22,0-.35-.17-.27-.44l.33-1.26a1,1,0,0,0,0-.3c0-.3-.2-.47-.53-.47a.91.91,0,0,0-.82.75l-.37,1.38a.41.41,0,0,1-.38.34c-.23,0-.35-.17-.28-.44l.61-2.28a.4.4,0,0,1,.39-.35A.29.29,0,0,1,118.74,49.63Zm3.68,2.81a1.3,1.3,0,0,1-1.37-1.34,1.8,1.8,0,0,1,1.77-1.79,1.32,1.32,0,0,1,1,.43A.43.43,0,0,1,124,50a.32.32,0,0,1-.32.32.28.28,0,0,1-.24-.11.77.77,0,0,0-.66-.33,1.16,1.16,0,0,0-1,1.2.71.71,0,0,0,.71.75,1,1,0,0,0,.64-.23.36.36,0,0,1,.21-.08.27.27,0,0,1,.27.29.31.31,0,0,1-.1.23A1.53,1.53,0,0,1,122.42,52.44Zm3.77-.75a.51.51,0,0,1,.22-.06.25.25,0,0,1,.26.26.28.28,0,0,1-.13.24,1.69,1.69,0,0,1-1,.31,1.25,1.25,0,0,1-1.36-1.31,1.82,1.82,0,0,1,1.76-1.82,1.11,1.11,0,0,1,1.2,1.16,1.69,1.69,0,0,1,0,.33c0,.2-.15.31-.34.31h-1.93v.06a.69.69,0,0,0,.77.71A1,1,0,0,0,126.19,51.69Zm.25-1a.58.58,0,0,0,0-.21.54.54,0,0,0-.6-.57,1.07,1.07,0,0,0-1,.78Z" transform="translate(-13.19 -8.95)"/><path id="_8Ojcbv.tif" data-name="8Ojcbv.tif" class="cls-3" d="M139.22,17.77h.5l.08,0,.45.07a3.65,3.65,0,0,1,2.06,1.24,3.56,3.56,0,0,1,.81,1.72c0,.18,0,.38.07.56v.2c0,.09,0,.18,0,.27a3.75,3.75,0,0,1-3,3.29l-.58.07h-.28c-.19,0-.38,0-.56-.08a3.6,3.6,0,0,1-1.72-.86,3.68,3.68,0,0,1-1.18-2.06c0-.15,0-.3-.07-.46v-.5a.19.19,0,0,0,0-.07,3.34,3.34,0,0,1,.42-1.41,3.69,3.69,0,0,1,2.57-1.92Zm-2.89,3.71a3.14,3.14,0,1,0,3.15-3.13A3.13,3.13,0,0,0,136.33,21.48Zm3.86.44L141,23.2h-.54s-.06,0-.07-.07c-.24-.37-.48-.74-.71-1.11a.14.14,0,0,0-.14-.08h-.65v1.25h-.57V19.78h0c.55,0,1.1,0,1.66,0a1.13,1.13,0,0,1,.89.45,1.07,1.07,0,0,1,.17.6.91.91,0,0,1-.42.88A4.34,4.34,0,0,1,140.19,21.92Zm-1.29-.46h.64a1.64,1.64,0,0,0,.62-.09.58.58,0,0,0,.26-.87.56.56,0,0,0-.44-.24c-.34,0-.68,0-1,0h-.06Z" transform="translate(-13.19 -8.95)"/></svg>