<svg width="100" height="100" viewBox="0 0 100 100" fill="none" xmlns="http://www.w3.org/2000/svg">
<circle cx="50" cy="50" r="49" fill="white" stroke="#ADB9C5" stroke-width="2"/>
<path d="M18.4784 64H14.8775L25.2923 35.6364H28.8378L39.2525 64H35.6517L27.1758 40.1236H26.9542L18.4784 64ZM19.8079 52.9205H34.3221V55.9673H19.8079V52.9205ZM43.6705 64V35.6364H53.2543C55.4702 35.6364 57.2891 36.0149 58.711 36.772C60.1329 37.5199 61.1854 38.5494 61.8687 39.8604C62.5519 41.1715 62.8935 42.6626 62.8935 44.3338C62.8935 46.005 62.5519 47.4869 61.8687 48.7795C61.1854 50.0721 60.1375 51.0877 58.7248 51.8263C57.3122 52.5558 55.5071 52.9205 53.3097 52.9205H45.554V49.8182H53.1989C54.7131 49.8182 55.9319 49.5966 56.8552 49.1534C57.7877 48.7102 58.4617 48.0824 58.8772 47.2699C59.3019 46.4482 59.5142 45.4695 59.5142 44.3338C59.5142 43.1982 59.3019 42.2056 58.8772 41.3562C58.4525 40.5067 57.7738 39.8512 56.8413 39.3896C55.9088 38.9187 54.6762 38.6832 53.1435 38.6832H47.1052V64H43.6705ZM57.0214 51.2585L64.0015 64H60.0128L53.1435 51.2585H57.0214ZM68.6168 64V35.6364H72.0514V60.9531H85.2361V64H68.6168Z" fill="#ADB9C5"/>
</svg>
