<?xml version="1.0" encoding="utf-8"?>
<!-- Generator: Adobe Illustrator 25.2.1, SVG Export Plug-In . SVG Version: 6.00 Build 0)  -->
<svg version="1.1" id="Capa_1" xmlns="http://www.w3.org/2000/svg" xmlns:xlink="http://www.w3.org/1999/xlink" x="0px" y="0px"
	 viewBox="0 0 169.1 169.8" style="enable-background:new 0 0 169.1 169.8;" xml:space="preserve">
<style type="text/css">
	.st0{fill:#FF7500;}
	.st1{fill:#DB5800;}
	.st2{fill:#F26700;}
	.st3{fill:url(#SVGID_1_);}
	.st4{fill:url(#SVGID_2_);}
	.st5{fill:#CDD1D3;}
	.st6{fill:url(#SVGID_3_);}
	.st7{fill:#FFFFFF;}
	.st8{fill:#B1B5B8;}
	.st9{fill:#132428;}
	.st10{fill:#FFAA00;}
	.st11{fill:#DBBA93;}
	.st12{fill:#EAC6A0;}
	.st13{fill:#FFD400;}
	.st14{fill:#FFAA20;}
	.st15{fill:#FFDBA9;}
	.st16{fill:#F2C300;}
	.st17{fill:#F49E21;}
	.st18{fill:#F4D0A4;}
</style>
<g>
	<g>
		
			<image style="overflow:visible;opacity:0.3;" width="163" height="163" xlink:href="B850EB26.png"  transform="matrix(1 0 0 1 6 7)">
		</image>
		<g>
			<circle class="st0" cx="85.2" cy="86.7" r="74.9"/>
		</g>
	</g>
	<path class="st1" d="M91.5,32.6l68.6,52.5c0,0,1.4,33-20.7,53.2S91,159.9,91,159.9L91.5,32.6z"/>
	<g>
		<path class="st7" d="M70.6,109.5c9.6,6,22,5.6,31.2-1c8.3-5.9,13.1-16.1,11.5-27.2c-18.6,0-37.2,0-55.8,0
			C56.1,93.2,61.4,103.6,70.6,109.5z"/>
		<path class="st7" d="M120.4,67.4c-23.4,0-46.6,0-69.9,0c0,2.6,0,5,0,7.5c23.4,0,46.6,0,69.9,0C120.4,72.3,120.4,69.9,120.4,67.4z"
			/>
		<path class="st7" d="M91.5,32.6c-4.1,0-8.1,0-12.1,0c0,9.5,0,18.9,0,28.4c4.2,0,8.1,0,12.1,0C91.5,51.4,91.5,42,91.5,32.6z"/>
		<path class="st7" d="M73.1,61c0-7.3,0-14.5,0-21.8C65.3,42,57,54,57.9,61C62.9,61,68,61,73.1,61z"/>
		<path class="st7" d="M97.8,39.4c0,7.2,0,14.3,0,21.7c5.3,0,10.4,0,15.5,0C113.2,52.6,104.6,40.7,97.8,39.4z"/>
		<path class="st7" d="M138,133.6c0-1.2-0.1-2.4-0.3-3.6l0-0.1c0,0,0,0,0,0c-2.1-14.7-15.5-22-25-21c0,5.7,0,11.4,0,17.2h-6.4
			c0-4.3,0-8.6,0-13c-13.9,9.1-27.6,9.1-41.5,0c0,4.4,0,8.7,0,13h-6.4c0-5.8,0-11.5,0-17.3c-14.2-0.6-27,11.7-25.2,27.7v4
			c13.5,13,31.8,21,52,21c20.8,0,39.6-8.5,53.2-22.2L138,133.6z"/>
	</g>
</g>
</svg>
