<svg width="32" height="32" viewBox="0 0 32 32" fill="none" xmlns="http://www.w3.org/2000/svg">
<path d="M29.7 19.3L26.7 16.3C26.3 15.9 25.7 15.9 25.3 16.3L16 25.6V30H20.4L29.7 20.7C30.1 20.3 30.1 19.7 29.7 19.3ZM19.6 28H18V26.4L23 21.4L24.6 23L19.6 28ZM26 21.6L24.4 20L26 18.4L27.6 20L26 21.6ZM10 23H12V25H10V23ZM14 18H18V20H14V18ZM10 18H12V20H10V18ZM14 13H22V15H14V13ZM10 13H12V15H10V13Z" fill="#ff7500"/>
<path d="M7 28V7H10V10H22V7H25V13H27V7C27 5.9 26.1 5 25 5H22V4C22 2.9 21.1 2 20 2H12C10.9 2 10 2.9 10 4V5H7C5.9 5 5 5.9 5 7V28C5 29.1 5.9 30 7 30H12V28H7ZM12 4H20V8H12V4Z" fill="#ff7500"/>
</svg>
