<svg width="36" height="36" viewBox="0 0 36 36" fill="none" xmlns="http://www.w3.org/2000/svg">
<g clip-path="url(#clip0_1980_14)">
<path d="M10 5.19922H28V6.74922H10V5.19922Z" fill="#F24E1E"/>
<path d="M28.9994 8H9.85944C9.60425 7.99638 9.35242 7.94112 9.11917 7.83753C8.88591 7.73395 8.67604 7.5842 8.50223 7.3973C8.32842 7.21041 8.19427 6.99025 8.10786 6.7501C8.02144 6.50995 7.98456 6.25479 7.99944 6C7.9982 5.49296 8.18959 5.00436 8.53489 4.63307C8.8802 4.26177 9.35364 4.03549 9.85944 4H28.9994C29.2647 4 29.519 3.89464 29.7066 3.70711C29.8941 3.51957 29.9994 3.26522 29.9994 3C29.9994 2.73478 29.8941 2.48043 29.7066 2.29289C29.519 2.10536 29.2647 2 28.9994 2H9.85944C8.82303 2.0363 7.84122 2.47369 7.12109 3.21994C6.40096 3.96619 5.99881 4.96295 5.99944 6C5.98977 6.16319 5.98977 6.32681 5.99944 6.49C5.98981 6.56971 5.98981 6.65029 5.99944 6.73V30C5.99881 31.037 6.40096 32.0338 7.12109 32.7801C7.84122 33.5263 8.82303 33.9637 9.85944 34H28.9994C29.2647 34 29.519 33.8946 29.7066 33.7071C29.8941 33.5196 29.9994 33.2652 29.9994 33V9.07C30 8.79794 29.897 8.53587 29.7112 8.33711C29.5254 8.13834 29.2709 8.0178 28.9994 8Z" fill="#ffffff"/>
</g>
<defs>
<clipPath id="clip0_1980_14">
<rect width="36" height="36" fill="white"/>
</clipPath>
</defs>
</svg>
