<?xml version="1.0" standalone="no"?>
<!DOCTYPE svg PUBLIC "-//W3C//DTD SVG 20010904//EN"
 "http://www.w3.org/TR/2001/REC-SVG-20010904/DTD/svg10.dtd">
<svg version="1.0" xmlns="http://www.w3.org/2000/svg"
 width="300.000000pt" height="600.000000pt" viewBox="0 0 300.000000 600.000000"
 preserveAspectRatio="xMidYMid meet">

<g transform="translate(0.000000,600.000000) scale(0.100000,-0.100000)"
fill="#000000" stroke="none">
<path d="M0 3000 l0 -3000 1500 0 1500 0 0 3000 0 3000 -1500 0 -1500 0 0
-3000z m1553 2829 c12 -7 25 -17 29 -23 4 -6 8 -100 8 -208 l0 -198 62 0 c93
0 98 -7 98 -152 l0 -118 90 0 c105 0 130 -14 130 -75 l0 -35 252 0 c220 0 254
-2 270 -17 15 -14 18 -32 18 -135 l0 -118 33 0 c18 0 43 -7 55 -16 l22 -15 0
-766 c0 -699 -1 -768 -17 -785 -15 -17 -62 -18 -1084 -18 l-1068 0 -20 27
c-21 26 -21 26 -19 944 l3 919 315 315 c312 312 315 315 356 315 36 0 47 -6
83 -45 l42 -46 -3 -224 -3 -225 37 0 36 0 4 121 c4 144 7 149 105 149 l63 0 0
204 c0 200 0 205 22 220 27 19 51 20 81 5z"/>
<path d="M813 5238 l-253 -253 0 -853 0 -852 200 0 200 0 0 774 0 775 22 15
c12 9 37 16 55 16 l33 0 0 118 c0 76 4 122 12 130 8 8 8 15 0 25 -7 9 -13 76
-14 185 l-3 172 -252 -252z m53 -563 c8 -10 14 -33 14 -51 0 -49 -28 -64 -123
-64 -69 0 -81 3 -102 25 -27 26 -31 46 -14 76 16 31 47 39 132 36 64 -2 81 -6
93 -22z m-8 -211 c15 -10 22 -25 22 -49 0 -55 -19 -65 -125 -65 -86 0 -95 2
-109 22 -23 33 -19 64 10 87 22 17 41 21 103 21 53 0 83 -5 99 -16z m4 -221
c22 -20 23 -70 1 -95 -13 -15 -32 -18 -105 -18 -98 0 -128 15 -128 65 0 49 31
65 127 65 66 0 91 -4 105 -17z m0 -220 c10 -9 18 -30 18 -49 0 -50 -28 -64
-127 -64 -70 0 -86 3 -103 20 -24 24 -26 57 -4 88 14 20 23 22 106 22 71 0 96
-4 110 -17z m4 -218 c8 -10 14 -33 14 -51 0 -49 -28 -64 -123 -64 -69 0 -81 3
-102 25 -27 26 -31 46 -14 76 16 31 47 39 132 36 64 -2 81 -6 93 -22z m-8
-211 c15 -10 22 -25 22 -49 0 -55 -19 -65 -125 -65 -86 0 -95 2 -109 22 -22
31 -20 58 6 85 19 20 31 23 103 23 57 0 87 -5 103 -16z"/>
<path d="M1430 5200 l0 -70 90 0 90 0 0 70 0 70 -90 0 -90 0 0 -70z"/>
<path d="M1210 4930 l0 -70 310 0 310 0 0 70 0 70 -310 0 -310 0 0 -70z"/>
<path d="M1970 4875 c0 -10 11 -15 35 -15 22 0 43 -8 55 -20 12 -12 20 -33 20
-55 l0 -35 145 0 145 0 0 70 0 70 -200 0 c-171 0 -200 -2 -200 -15z"/>
<path d="M1100 4005 l0 -725 420 0 420 0 0 725 0 725 -420 0 -420 0 0 -725z
m724 575 c47 -17 47 -97 1 -118 -38 -17 -581 -16 -615 1 -20 10 -26 21 -28 54
-5 72 -2 73 330 73 160 0 298 -4 312 -10z m18 -337 c22 -20 23 -70 1 -95 -15
-17 -38 -18 -324 -18 -266 0 -310 2 -323 16 -21 20 -20 73 1 96 15 17 38 18
321 18 270 0 308 -2 324 -17z m0 -330 c24 -21 23 -68 -2 -93 -19 -19 -33 -20
-318 -20 -338 0 -342 1 -342 69 0 20 5 42 12 49 9 9 94 12 322 12 274 0 312
-2 328 -17z m-2 -323 c24 -24 26 -67 3 -92 -15 -17 -39 -18 -328 -18 -228 0
-314 3 -323 12 -7 7 -12 29 -12 49 0 68 4 69 342 69 285 0 299 -1 318 -20z"/>
<path d="M2080 3950 l0 -670 200 0 200 0 0 670 0 670 -200 0 -200 0 0 -670z
m252 563 c15 -14 18 -32 18 -128 0 -67 -4 -115 -11 -122 -8 -8 -8 -17 0 -31
14 -27 14 -225 0 -239 -8 -8 -8 -17 0 -31 17 -31 14 -224 -3 -247 -20 -27 -92
-27 -112 0 -17 23 -20 216 -3 247 8 14 8 23 0 31 -16 16 -15 229 1 245 9 9 9
15 0 24 -8 8 -12 50 -12 122 0 88 3 113 17 128 20 23 80 24 105 1z m0 -870
c26 -23 27 -227 1 -255 -20 -23 -80 -24 -105 -1 -26 23 -27 227 -1 255 20 23
80 24 105 1z"/>
</g>
</svg>
