<svg width="100" height="100" viewBox="0 0 100 100" fill="none" xmlns="http://www.w3.org/2000/svg">
<circle cx="50" cy="50" r="49" fill="white" stroke="#ADB9C5" stroke-width="2"/>
<path d="M17.4674 64V35.6364H34.5853V38.6832H20.902V48.267H33.6989V51.3139H20.902V60.9531H34.8069V64H17.4674ZM40.776 64V35.6364H50.3598C52.5849 35.6364 54.4038 36.038 55.8165 36.8413C57.2383 37.6353 58.2909 38.7109 58.9741 40.0682C59.6574 41.4254 59.999 42.9396 59.999 44.6108C59.999 46.282 59.6574 47.8008 58.9741 49.1673C58.3001 50.5337 57.2568 51.6232 55.8442 52.4357C54.4315 53.239 52.6218 53.6406 50.4152 53.6406H43.5459V50.5938H50.3044C51.8278 50.5938 53.0512 50.3306 53.9745 49.8043C54.8978 49.2781 55.5672 48.5671 55.9826 47.6715C56.4074 46.7667 56.6197 45.7464 56.6197 44.6108C56.6197 43.4751 56.4074 42.4595 55.9826 41.5639C55.5672 40.6683 54.8932 39.9666 53.9606 39.4588C53.0281 38.9418 51.7909 38.6832 50.249 38.6832H44.2106V64H40.776ZM81.0432 42.7273C80.877 41.3239 80.203 40.2344 79.0212 39.4588C77.8394 38.6832 76.3898 38.2955 74.6725 38.2955C73.4168 38.2955 72.318 38.4986 71.3763 38.9048C70.4438 39.3111 69.7144 39.8697 69.1881 40.5806C68.671 41.2915 68.4125 42.0994 68.4125 43.0043C68.4125 43.7614 68.5926 44.4123 68.9526 44.957C69.322 45.4925 69.7928 45.9403 70.3653 46.3004C70.9377 46.6513 71.5379 46.9421 72.1657 47.1729C72.7935 47.3945 73.3706 47.5746 73.8969 47.7131L76.7776 48.4886C77.5162 48.6825 78.3379 48.9503 79.2428 49.2919C80.1568 49.6335 81.0293 50.0998 81.8603 50.6907C82.7005 51.2724 83.393 52.0202 83.9377 52.9343C84.4825 53.8484 84.7548 54.9702 84.7548 56.2997C84.7548 57.8324 84.3532 59.2173 83.5499 60.4545C82.7559 61.6918 81.5926 62.6751 80.0599 63.4045C78.5364 64.1339 76.6852 64.4986 74.5063 64.4986C72.475 64.4986 70.7161 64.1708 69.2296 63.5153C67.7524 62.8597 66.589 61.9457 65.7396 60.7731C64.8994 59.6005 64.4239 58.2386 64.3131 56.6875H67.8585C67.9509 57.7585 68.3109 58.6449 68.9388 59.3466C69.5759 60.0391 70.3791 60.5561 71.3486 60.8977C72.3273 61.2301 73.3798 61.3963 74.5063 61.3963C75.8173 61.3963 76.9945 61.1839 78.0379 60.7592C79.0812 60.3253 79.9075 59.7251 80.5169 58.9588C81.1263 58.1832 81.431 57.2784 81.431 56.2443C81.431 55.3026 81.1678 54.5362 80.6416 53.9453C80.1153 53.3544 79.4228 52.8743 78.5641 52.505C77.7055 52.1357 76.7776 51.8125 75.7804 51.5355L72.2904 50.5384C70.0744 49.9013 68.3202 48.9918 67.0276 47.81C65.735 46.6282 65.0886 45.0817 65.0886 43.1705C65.0886 41.5824 65.518 40.1974 66.3766 39.0156C67.2445 37.8246 68.4079 36.9013 69.8667 36.2457C71.3347 35.581 72.9736 35.2486 74.7832 35.2486C76.6114 35.2486 78.2364 35.5763 79.6582 36.2319C81.0801 36.8782 82.2065 37.7646 83.0375 38.891C83.8777 40.0174 84.3209 41.2962 84.3671 42.7273H81.0432Z" fill="#ADB9C5"/>
</svg>
