<?xml version="1.0" standalone="no"?>
<!DOCTYPE svg PUBLIC "-//W3C//DTD SVG 20010904//EN"
 "http://www.w3.org/TR/2001/REC-SVG-20010904/DTD/svg10.dtd">
<svg version="1.0" xmlns="http://www.w3.org/2000/svg"
 width="512.000000pt" height="512.000000pt" viewBox="0 0 512.000000 512.000000"
 preserveAspectRatio="xMidYMid meet">

<g transform="translate(0.000000,512.000000) scale(0.100000,-0.100000)"
fill="#ffffff" stroke="none">
<path d="M1631 4681 c-604 -210 -919 -324 -928 -336 -11 -16 -13 -184 -13
-934 0 -532 4 -973 10 -1051 67 -881 683 -1673 1679 -2158 203 -100 162 -102
401 18 355 177 623 365 884 619 414 404 656 851 742 1371 16 94 18 211 21
1115 4 965 3 1012 -14 1027 -18 15 -1834 649 -1856 647 -7 0 -423 -143 -926
-318z m1832 -76 l888 -309 -4 -985 c-4 -1069 -4 -1060 -62 -1289 -153 -607
-588 -1156 -1237 -1563 -130 -81 -458 -249 -486 -249 -22 0 -260 116 -385 187
-693 395 -1180 985 -1342 1625 -58 229 -58 220 -62 1288 l-4 986 893 311 c491
171 898 310 903 308 6 -1 410 -141 898 -310z"/>
<path d="M1835 4328 c-396 -137 -726 -257 -732 -266 -17 -21 -18 -1518 -2
-1692 59 -643 489 -1245 1189 -1666 64 -39 150 -88 193 -109 l77 -40 83 42
c360 185 724 475 949 759 209 263 353 568 409 865 21 110 22 143 26 969 3 693
2 858 -9 872 -8 10 -310 120 -736 267 -398 138 -724 251 -725 250 -1 0 -326
-113 -722 -251z m1425 -76 l685 -238 3 -745 c3 -774 -2 -932 -38 -1091 -110
-501 -472 -982 -1003 -1332 -127 -84 -325 -196 -346 -196 -8 0 -53 21 -100 47
-667 362 -1124 902 -1251 1481 -36 159 -41 317 -38 1091 l3 744 680 238 c374
130 689 237 700 238 11 0 328 -106 705 -237z"/>
<path d="M2465 3894 c-8 -9 -14 -24 -11 -33 3 -9 12 -51 21 -94 28 -128 7
-178 -108 -255 -129 -88 -198 -185 -249 -354 -19 -63 -22 -97 -22 -253 -1
-157 -3 -185 -19 -208 -28 -43 -46 -45 -78 -9 -43 48 -53 100 -54 272 0 85 -4
161 -8 168 -16 24 -46 11 -93 -40 -60 -67 -127 -171 -166 -256 -84 -186 -105
-416 -55 -604 70 -262 226 -493 421 -622 163 -108 307 -149 521 -149 161 0
282 26 396 83 236 120 449 392 533 684 110 380 -16 799 -343 1139 -95 98 -115
78 -99 -105 10 -109 10 -133 -5 -193 -19 -77 -29 -93 -73 -111 -69 -29 -149
28 -179 128 -20 68 -19 81 11 244 29 154 28 241 -2 329 -25 71 -116 159 -221
213 -91 47 -95 48 -118 26z m148 -133 c58 -38 113 -112 128 -175 14 -56 8
-126 -21 -286 -25 -136 -21 -211 15 -285 47 -97 116 -148 200 -148 130 0 199
102 200 296 l0 99 34 -39 c51 -58 147 -207 186 -289 46 -97 83 -226 95 -334
31 -275 -81 -585 -289 -804 -61 -63 -185 -166 -201 -166 -4 0 1 25 12 55 64
189 20 321 -176 535 -161 176 -199 249 -214 415 -7 76 -8 80 -33 83 -32 4
-117 -70 -154 -132 -82 -141 -76 -247 29 -496 37 -87 45 -147 24 -168 -7 -7
-30 -12 -52 -12 -33 0 -46 6 -80 43 -23 24 -52 71 -67 107 -44 106 -73 107
-121 3 -28 -59 -32 -81 -36 -173 -4 -92 -1 -115 20 -178 l24 -72 -25 16 c-255
162 -434 487 -435 789 0 164 45 317 135 461 l44 69 6 -90 c8 -114 46 -229 88
-267 66 -59 154 -41 201 43 24 42 25 51 26 229 0 166 2 192 23 255 50 152 98
222 195 287 81 54 124 95 147 141 25 48 34 120 21 175 -5 23 -7 42 -3 42 4 0
28 -13 54 -29z m-73 -1323 c23 -63 83 -145 194 -268 174 -191 211 -292 166
-450 -5 -19 -24 -60 -42 -90 -38 -64 -59 -73 -195 -90 -132 -17 -331 7 -391
46 -13 9 -40 50 -60 92 -32 68 -37 87 -40 172 -2 52 0 105 5 118 9 22 11 21
40 -27 43 -68 99 -104 172 -109 157 -11 192 100 98 318 -62 144 -79 215 -68
276 13 67 28 103 59 144 l27 35 7 -55 c4 -31 16 -81 28 -112z"/>
</g>
</svg>
