<svg width="28" height="28" viewBox="0 0 28 28" fill="none" xmlns="http://www.w3.org/2000/svg">
<path d="M9.74906 6.24735C9.74919 5.43889 9.97991 4.64724 10.4142 3.96529C10.8484 3.28335 11.4681 2.73941 12.2006 2.39731C12.9332 2.0552 13.748 1.92913 14.5497 2.03387C15.3513 2.13862 16.1065 2.46984 16.7265 2.98867C17.3465 3.5075 17.8057 4.19242 18.0501 4.96304C18.2946 5.73366 18.3141 6.55802 18.1066 7.33937C17.899 8.12072 17.4728 8.82666 16.8781 9.37433C16.2834 9.922 15.5448 10.2887 14.7491 10.4313V13.4993H19.2491C19.8458 13.4993 20.4181 13.7364 20.84 14.1584C21.262 14.5803 21.4991 15.1526 21.4991 15.7493V17.5653C22.5447 17.7528 23.4822 18.3249 24.1271 19.169C24.772 20.0131 25.0774 21.0681 24.9834 22.1261C24.8893 23.1842 24.4025 24.1688 23.6188 24.8859C22.8351 25.603 21.8113 26.0007 20.7491 26.0007C19.6868 26.0007 18.663 25.603 17.8793 24.8859C17.0956 24.1688 16.6088 23.1842 16.5148 22.1261C16.4207 21.0681 16.7262 20.0131 17.371 19.169C18.0159 18.3249 18.9535 17.7528 19.9991 17.5653V15.7493C19.9991 15.5504 19.92 15.3597 19.7794 15.219C19.6387 15.0784 19.448 14.9993 19.2491 14.9993H8.74906C8.55014 14.9993 8.35938 15.0784 8.21873 15.219C8.07807 15.3597 7.99906 15.5504 7.99906 15.7493V17.5653C9.04465 17.7528 9.9822 18.3249 10.6271 19.169C11.272 20.0131 11.5774 21.0681 11.4834 22.1261C11.3893 23.1842 10.9025 24.1688 10.1188 24.8859C9.33509 25.603 8.31132 26.0007 7.24906 26.0007C6.18679 26.0007 5.16302 25.603 4.37934 24.8859C3.59565 24.1688 3.10884 23.1842 3.01476 22.1261C2.92068 21.0681 3.22616 20.0131 3.87104 19.169C4.51591 18.3249 5.45346 17.7528 6.49906 17.5653V15.7493C6.49906 15.1526 6.73611 14.5803 7.15807 14.1584C7.58002 13.7364 8.15232 13.4993 8.74906 13.4993H13.2491V10.4313C12.2676 10.2552 11.3793 9.7396 10.7395 8.97476C10.0997 8.20992 9.74909 7.24451 9.74906 6.24735Z" fill="#ffffff"/>
</svg>
