<?xml version="1.0" standalone="no"?>
<!DOCTYPE svg PUBLIC "-//W3C//DTD SVG 20010904//EN"
 "http://www.w3.org/TR/2001/REC-SVG-20010904/DTD/svg10.dtd">
<svg version="1.0" xmlns="http://www.w3.org/2000/svg"
 width="512.000000pt" height="512.000000pt" viewBox="0 0 512.000000 512.000000"
 preserveAspectRatio="xMidYMid meet">

<g transform="translate(0.000000,512.000000) scale(0.100000,-0.100000)"
fill="#adb9c5" stroke="none">
<path d="M3259 5106 c-87 -31 -149 -93 -177 -175 -8 -21 -12 -108 -12 -232 l0
-198 -282 -3 -283 -3 -53 -29 c-57 -32 -102 -81 -130 -143 -16 -35 -17 -105
-20 -860 l-3 -823 -522 1 -522 0 -285 435 c-157 240 -287 437 -290 439 -6 4
-303 -440 -308 -460 -3 -11 98 -85 115 -85 5 0 49 64 99 141 l90 140 226 -343
c125 -189 238 -367 252 -394 36 -72 49 -145 43 -239 -20 -314 -334 -528 -657
-446 -46 11 -109 36 -139 54 -174 103 -275 309 -243 495 16 96 37 139 146 307
53 80 96 147 96 149 0 6 -110 76 -118 76 -13 0 -185 -262 -222 -338 -175 -356
60 -807 466 -898 116 -25 273 -16 380 24 195 71 338 214 412 410 22 58 26 84
26 187 1 66 -2 135 -6 153 l-8 32 485 0 484 0 3 -822 c3 -756 4 -826 20 -861
30 -66 76 -115 136 -144 l57 -28 278 -3 277 -3 1 -202 c0 -128 5 -214 12 -234
22 -60 72 -117 128 -148 l54 -30 653 -3 652 -3 0 76 0 75 -641 2 -641 3 -34
37 -34 38 0 505 0 505 875 0 875 0 0 -497 c0 -476 -1 -499 -20 -530 -28 -47
-67 -63 -155 -63 l-75 0 0 -75 0 -75 78 0 c115 0 174 21 237 83 94 94 85 -160
85 2477 0 2637 9 2383 -85 2477 -86 85 -64 83 -767 83 l-608 0 0 -75 0 -75
608 0 c584 0 608 -1 639 -20 64 -39 63 -28 63 -575 l0 -495 -875 0 -875 0 0
505 0 505 34 38 34 37 111 3 111 4 0 74 0 74 -107 0 c-62 -1 -124 -6 -144 -14z
m-191 -1303 l2 -543 -305 0 -305 0 0 503 c0 554 -3 527 64 568 29 18 50 19
286 17 l255 -3 3 -542z m1902 -618 l0 -545 -875 0 -875 0 0 545 0 545 875 0
875 0 0 -545z m-1905 -625 l0 -545 -302 -3 -303 -2 0 550 0 550 303 -2 302 -3
0 -545z m1905 -625 l0 -545 -875 0 -875 0 0 545 0 545 875 0 875 0 0 -545z
m-1902 -617 l-3 -543 -250 -3 c-271 -3 -288 0 -330 50 l-25 30 0 504 0 504
305 0 305 0 -2 -542z"/>
<path d="M3820 3186 l0 -376 189 0 c212 0 234 5 295 67 69 71 83 184 32 267
l-23 39 23 34 c66 97 26 246 -83 310 -47 28 -50 28 -240 31 l-193 4 0 -376z
m353 213 c24 -11 47 -47 47 -73 0 -7 -9 -25 -21 -40 -20 -25 -24 -26 -125 -26
l-104 0 0 75 0 75 90 0 c49 0 100 -5 113 -11z m-6 -299 c28 -10 53 -45 53 -74
0 -7 -9 -25 -21 -40 -20 -25 -24 -26 -125 -26 l-104 0 0 75 0 75 84 0 c45 0
97 -5 113 -10z"/>
<path d="M3972 2284 c-64 -32 -116 -91 -138 -156 -12 -39 -15 -81 -12 -211 4
-186 13 -214 92 -284 53 -46 109 -66 188 -65 107 1 196 59 240 156 21 47 23
65 23 216 0 148 -2 170 -22 212 -64 138 -236 200 -371 132z m192 -145 c48 -37
56 -67 56 -199 0 -139 -13 -181 -63 -207 -37 -19 -94 -20 -126 -4 -50 27 -61
65 -61 209 0 147 9 180 58 206 40 22 104 20 136 -5z"/>
<path d="M4002 4781 c-66 -23 -126 -79 -158 -146 -23 -49 -24 -57 -24 -322 l0
-273 75 0 75 0 0 75 0 75 125 0 125 0 0 -75 0 -75 75 0 75 0 0 259 c0 310 -5
337 -86 418 -79 80 -174 101 -282 64z m164 -156 c40 -26 54 -73 54 -185 l0
-100 -125 0 -125 0 0 108 c0 121 8 145 60 180 40 27 92 26 136 -3z"/>
<path d="M920 2265 l0 -76 73 3 72 3 3 73 3 72 -76 0 -75 0 0 -75z"/>
<path d="M660 2025 l0 -76 73 3 72 3 3 73 3 72 -76 0 -75 0 0 -75z"/>
<path d="M3641 1053 c-61 -22 -133 -96 -154 -158 -14 -40 -17 -92 -17 -312 l0
-263 75 0 75 0 0 70 0 70 125 0 125 0 0 -70 0 -70 76 0 75 0 -3 273 c-4 303
-5 310 -74 387 -21 23 -56 51 -78 62 -55 28 -165 34 -225 11z m167 -153 c48
-29 62 -72 62 -190 l0 -100 -125 0 -125 0 0 111 c0 84 4 117 16 138 36 60 111
78 172 41z"/>
<path d="M4170 695 l0 -375 176 0 c104 0 192 5 215 11 80 24 143 102 155 193
7 47 -16 136 -40 155 -10 9 -7 22 16 67 44 89 34 170 -31 245 -60 71 -88 79
-303 79 l-188 0 0 -375z m375 200 c30 -29 32 -64 6 -96 -18 -22 -28 -24 -125
-27 l-106 -4 0 76 0 76 100 0 c94 0 103 -2 125 -25z m0 -300 c14 -13 25 -36
25 -50 0 -14 -11 -37 -25 -50 -22 -23 -31 -25 -125 -25 l-100 0 0 75 0 75 100
0 c94 0 103 -2 125 -25z"/>
</g>
</svg>
