<?xml version="1.0" standalone="no"?>
<!DOCTYPE svg PUBLIC "-//W3C//DTD SVG 20010904//EN"
 "http://www.w3.org/TR/2001/REC-SVG-20010904/DTD/svg10.dtd">
<svg version="1.0" xmlns="http://www.w3.org/2000/svg"
 width="512.000000pt" height="512.000000pt" viewBox="0 0 512.000000 512.000000"
 preserveAspectRatio="xMidYMid meet">

<g transform="translate(0.000000,512.000000) scale(0.100000,-0.100000)"
fill="#adb9c5" stroke="none">
<path d="M1106 5109 c-62 -15 -153 -68 -197 -116 -22 -24 -55 -74 -72 -111
l-32 -67 -3 -207 -4 -208 81 0 81 0 0 176 c0 213 7 241 75 310 75 75 77 75
523 72 l383 -3 24 -60 c32 -79 52 -104 110 -140 l48 -30 436 0 436 0 47 28
c58 34 93 78 117 148 l18 54 384 3 c281 2 396 -1 429 -10 58 -16 141 -96 158
-154 9 -32 12 -478 12 -1938 l0 -1896 -200 0 -200 0 0 -80 0 -80 200 0 200 0
0 -216 c0 -141 -4 -231 -12 -258 -16 -55 -99 -138 -154 -154 -60 -17 -2808
-17 -2868 0 -55 16 -138 99 -154 154 -8 27 -12 117 -12 258 l0 216 1160 0
1160 0 0 80 0 80 -1160 0 -1160 0 0 1480 0 1480 -80 0 -80 0 2 -1808 3 -1808
37 -76 c45 -91 103 -147 196 -191 l67 -32 1455 0 1455 0 67 32 c93 44 151 100
196 191 l37 76 0 2255 0 2256 -32 67 c-44 93 -100 151 -191 196 l-76 37 -1435
2 c-845 1 -1452 -3 -1475 -8z m1897 -169 c-3 -11 -17 -29 -31 -40 -24 -19 -41
-20 -412 -20 -371 0 -388 1 -412 20 -14 11 -28 29 -31 40 -5 20 -2 20 443 20
445 0 448 0 443 -20z"/>
<path d="M800 4160 l0 -80 80 0 80 0 0 80 0 80 -80 0 -80 0 0 -80z"/>
<path d="M2357 3985 c-296 -48 -549 -177 -757 -385 -193 -193 -322 -435 -377
-708 -24 -120 -24 -384 0 -504 111 -553 533 -975 1087 -1085 122 -25 384 -24
505 1 487 101 869 432 1028 892 56 163 71 257 71 444 0 115 -5 191 -17 250
-109 546 -520 964 -1062 1082 -121 26 -359 32 -478 13z m441 -169 c239 -52
438 -160 608 -330 170 -170 275 -364 331 -608 23 -103 23 -375 0 -476 -113
-493 -474 -847 -962 -943 -40 -8 -132 -14 -215 -14 -158 0 -235 12 -373 56
-405 131 -711 474 -803 899 -26 118 -26 362 0 480 90 416 381 749 781 893 62
22 169 47 260 61 61 9 302 -3 373 -18z"/>
<path d="M2560 3600 l0 -80 34 0 c65 0 210 -31 285 -61 313 -125 527 -411 557
-744 l7 -75 78 0 79 0 0 38 c0 62 -28 213 -53 287 -58 169 -142 300 -274 426
-120 115 -231 182 -387 235 -75 26 -225 54 -288 54 l-38 0 0 -80z"/>
<path d="M2265 3255 c-24 -23 -25 -29 -25 -160 l0 -135 -135 0 c-131 0 -137
-1 -160 -25 l-25 -24 0 -271 0 -271 25 -24 c23 -24 29 -25 160 -25 l135 0 0
-135 c0 -131 1 -137 25 -160 l24 -25 271 0 271 0 24 25 c24 23 25 29 25 160
l0 135 135 0 c131 0 137 1 160 25 l25 24 0 271 0 271 -25 24 c-23 24 -29 25
-160 25 l-135 0 0 135 c0 131 -1 137 -25 160 l-24 25 -271 0 -271 0 -24 -25z
m455 -270 c0 -131 1 -137 25 -160 23 -24 29 -25 160 -25 l135 0 0 -160 0 -160
-135 0 c-131 0 -137 -1 -160 -25 -24 -23 -25 -29 -25 -160 l0 -135 -160 0
-160 0 0 135 c0 131 -1 137 -25 160 -23 24 -29 25 -160 25 l-135 0 0 160 0
160 135 0 c131 0 137 1 160 25 24 23 25 29 25 160 l0 135 160 0 160 0 0 -135z"/>
<path d="M3440 2400 l0 -80 80 0 80 0 0 80 0 80 -80 0 -80 0 0 -80z"/>
<path d="M362 3595 c-437 -477 -486 -1369 -106 -1935 49 -74 169 -209 176
-200 3 3 26 31 51 64 l47 58 -58 63 c-414 442 -414 1388 -1 1830 l59 62 -48
61 c-26 34 -50 61 -54 62 -3 0 -33 -29 -66 -65z"/>
<path d="M4638 3598 l-48 -61 59 -62 c141 -152 246 -385 293 -655 7 -43 13
-153 13 -260 0 -107 -6 -217 -13 -260 -48 -271 -152 -503 -294 -655 l-58 -63
47 -58 c25 -33 48 -61 51 -64 7 -9 127 126 176 199 341 509 342 1292 0 1801
-46 69 -160 200 -172 200 -4 -1 -28 -28 -54 -62z"/>
<path d="M460 2980 c-95 -97 -134 -221 -134 -420 0 -148 13 -219 61 -317 26
-53 111 -153 130 -153 5 0 24 31 42 69 l34 69 -32 39 c-56 70 -75 141 -75 288
-1 153 15 218 70 291 l36 47 -33 69 c-18 37 -37 68 -42 68 -4 0 -30 -22 -57
-50z"/>
<path d="M4561 2961 l-34 -69 32 -39 c58 -72 75 -140 75 -293 0 -153 -17 -221
-75 -293 l-32 -39 34 -69 c18 -38 37 -69 42 -69 19 0 104 100 130 153 48 98
61 169 61 317 0 148 -13 219 -61 317 -25 51 -113 153 -132 153 -4 0 -22 -31
-40 -69z"/>
<path d="M3440 880 l0 -80 80 0 80 0 0 80 0 80 -80 0 -80 0 0 -80z"/>
<path d="M2240 707 c-49 -16 -133 -102 -148 -153 -28 -94 -8 -169 63 -239 31
-32 65 -55 91 -63 28 -8 130 -12 316 -12 323 0 343 4 411 80 90 100 90 220 0
320 -69 77 -88 80 -417 79 -174 -1 -294 -5 -316 -12z m615 -172 c16 -15 25
-36 25 -55 0 -19 -9 -40 -25 -55 l-24 -25 -271 0 -271 0 -24 25 c-16 15 -25
36 -25 55 0 19 9 40 25 55 l24 25 271 0 271 0 24 -25z"/>
</g>
</svg>
