<svg width="24" height="24" viewBox="0 0 24 24" fill="none" xmlns="http://www.w3.org/2000/svg">
<path d="M5.615 20C5.16833 20 4.78733 19.8427 4.472 19.528C4.15733 19.2133 4 18.8323 4 18.385V7.487C4 7.29167 4.031 7.10833 4.093 6.937C4.15567 6.765 4.249 6.60667 4.373 6.462L5.931 4.59C6.07567 4.39533 6.25667 4.24833 6.474 4.149C6.69133 4.04967 6.92467 4 7.174 4H16.788C17.0373 4 17.274 4.04967 17.498 4.149C17.7213 4.249 17.9053 4.396 18.05 4.59L19.627 6.5C19.751 6.64467 19.8443 6.80633 19.907 6.985C19.969 7.163 20 7.34967 20 7.545V18.385C20 18.8317 19.8427 19.2127 19.528 19.528C19.2133 19.8427 18.8323 20 18.385 20H5.615ZM5.381 6.808H18.6L17.27 5.212C17.2053 5.14733 17.1313 5.096 17.048 5.058C16.9647 5.01933 16.878 5 16.788 5H7.192C7.10267 5 7.016 5.01933 6.932 5.058C6.84933 5.096 6.776 5.14733 6.712 5.212L5.381 6.808ZM15 7.808H9V14.596L12 13.096L15 14.596V7.808Z" fill="#ff7500"/>
</svg>
