<?xml version="1.0" encoding="utf-8"?>
<!-- Generator: Adobe Illustrator 25.2.1, SVG Export Plug-In . SVG Version: 6.00 Build 0)  -->
<svg version="1.1" id="Capa_1" xmlns="http://www.w3.org/2000/svg" xmlns:xlink="http://www.w3.org/1999/xlink" x="0px" y="0px"
	 viewBox="0 0 169.1 169.8" style="enable-background:new 0 0 169.1 169.8;" xml:space="preserve">
<style type="text/css">
	.st0{fill:#FF7500;}
	.st1{fill:#DB5800;}
	.st2{fill:#F26700;}
	.st3{fill:url(#SVGID_1_);}
	.st4{fill:url(#SVGID_2_);}
	.st5{fill:#CDD1D3;}
	.st6{fill:url(#SVGID_3_);}
	.st7{fill:#FFFFFF;}
	.st8{fill:#B1B5B8;}
	.st9{fill:#132428;}
	.st10{fill:#FFAA00;}
	.st11{fill:#DBBA93;}
	.st12{fill:#EAC6A0;}
	.st13{fill:#FFD400;}
	.st14{fill:#FFAA20;}
	.st15{fill:#FFDBA9;}
	.st16{fill:#F2C300;}
	.st17{fill:#F49E21;}
	.st18{fill:#F4D0A4;}
</style>
<g>
	<path class="st0" d="M111,156.8c0-6.2,0-12.1,0-18.1c0-4.8,1.7-6.5,6.6-6.5c5.7,0,11.3,0,17.1,0c0-38.9,0-77.5,0-116.5
		c-1.3,0-2.6,0-3.8,0c-21.1,0-42.2,0-63.3,0c-0.9,0-1.8,0-2.6-0.1c-1.5-0.2-3.3-3.4,0.1-4.2c0.5-0.1,1.1-0.1,1.7-0.1
		c21.9,0,43.8,0,65.6,0c5.3,0,6.8,1.5,6.8,6.8c0,38.1,0,76.2,0,114.3c0,2.1-0.6,3.7-2.1,5.2c-7,7.2-14,14.5-20.9,21.8
		c-1.4,1.4-2.8,2.1-4.8,2.1c-25.1-0.1-50.2,0-75.3,0c-4.6,0-6.2-1.6-6.2-6.1c0-45.9,0-91.8,0-137.8c0-4.6,1.6-6.2,6.1-6.2
		c5.8,0,11.5,0,17.3,0c1.6,0,3.1,0.1,3.2,2.1c0.1,2.2-1.7,2.3-3.3,2.3c-5.2,0-10.4,0-15.5,0c-1,0-2.1,0-3.3,0c0,47.2,0,94,0,141.1
		C59.9,156.8,85.2,156.8,111,156.8z M115.6,153.5c5.6-5.8,10.6-11.1,16-16.6c-5.7,0-10.8,0-16,0
		C115.6,142.4,115.6,147.6,115.6,153.5z"/>
	<path class="st0" d="M103.1,61.7c1.1-1.1,2-2.1,2.9-3.1c3.1-2.9,7.8-3,10.9-0.2c3.1,2.7,4.2,7.7,1.2,10.5
		c-4.7,4.4-4.8,8.9-4.1,14.9c2,17-11.3,32.9-27.8,34.7c-18.6,2.1-34.4-10.2-36.8-28.6c-2.2-16.8,10.1-33.2,27.1-35.8
		C86.4,52.7,95.2,55.2,103.1,61.7z M108.9,79.9c-2,2.3-3.9,4.5-6,6.5c-0.6,0.6-2,0.3-3,0.4c-0.1-1-0.3-2.1-0.1-3.1
		c0.1-0.7,0.9-1.2,1.4-1.8c4.3-4.8,8.5-9.7,12.7-14.5c2.2-2.5,1.6-5.5-1.1-6.4c-2.1-0.7-3.5,0.5-4.8,1.9
		c-6.8,7.8-13.7,15.6-20.5,23.3c-2.2,2.5-3,2.5-5.1,0.1c-2.1-2.3-4-4.8-6.1-7.1c-1.8-2-4-2.3-5.6-0.9c-1.7,1.5-1.8,3.6,0,5.7
		c3.6,4.3,7.3,8.6,11.1,12.9c2.2,2.5,4.2,2.4,6.4-0.1c1.5-1.7,2.8-3.6,4.5-5c0.7-0.6,2.2-0.4,3.3-0.6c0,1.1,0.4,2.5-0.1,3.3
		c-1.1,1.8-2.7,3.3-4.1,5c-4.2,4.8-9.3,4.9-13.5,0.1c-3.7-4.2-7.3-8.4-10.9-12.7c-3.2-3.9-3.1-8.8,0.4-11.8
		c3.6-3.2,8.4-2.7,11.9,1.2c1.8,2,3.5,4,5.4,6.2c5.2-6,10.2-11.6,15.2-17.3c-10.3-9.4-26.4-9.2-36.9,0.1
		c-10.7,9.4-12.6,25.6-4.4,37.2c8.3,11.8,24.1,15.4,36.7,8.5C106.7,104.8,112.5,91,108.9,79.9z"/>
</g>
</svg>
