<?xml version="1.0" standalone="no"?>
<!DOCTYPE svg PUBLIC "-//W3C//DTD SVG 20010904//EN"
 "http://www.w3.org/TR/2001/REC-SVG-20010904/DTD/svg10.dtd">
<svg version="1.0" xmlns="http://www.w3.org/2000/svg"
 width="512.000000pt" height="512.000000pt" viewBox="0 0 512.000000 512.000000"
 preserveAspectRatio="xMidYMid meet">

<g transform="translate(0.000000,512.000000) scale(0.100000,-0.100000)"
fill="#adb9c5" stroke="none">
<path d="M1589 5105 c-99 -32 -179 -135 -194 -251 l-7 -51 -37 13 c-51 18
-139 17 -197 -3 -66 -22 -145 -101 -167 -167 -15 -45 -17 -123 -17 -777 l0
-728 -22 -15 c-12 -9 -27 -16 -32 -16 -5 0 -66 56 -136 125 -163 160 -201 180
-345 180 -83 0 -108 -4 -149 -23 -109 -50 -175 -131 -176 -214 0 -87 6 -94
517 -580 275 -261 498 -481 514 -507 61 -95 59 -61 59 -1043 0 -786 2 -903 15
-935 20 -48 41 -71 88 -94 35 -19 61 -19 526 -17 l489 3 39 31 c74 59 73 53
73 477 l0 377 128 0 128 0 31 -43 c40 -57 91 -82 169 -82 50 0 69 5 103 28 23
16 52 44 63 63 l20 34 478 0 c468 0 478 0 504 21 33 26 36 79 6 109 -19 19
-33 20 -490 20 -531 0 -492 -7 -445 80 14 25 35 65 48 90 l22 45 5 760 5 760
30 3 c39 5 80 35 95 71 8 19 11 72 8 154 -3 117 -5 127 -28 152 -13 14 -43 31
-67 36 l-42 11 -3 312 -3 311 -28 57 c-53 108 -166 178 -287 178 l-60 0 0 60
0 60 1020 0 1020 0 0 -1564 c0 -1417 -1 -1564 -16 -1570 -9 -3 -128 -6 -265
-6 -236 0 -250 -1 -269 -20 -30 -30 -27 -83 6 -109 25 -20 38 -21 283 -21 318
1 348 9 392 105 18 38 19 114 19 1835 0 1721 -1 1797 -19 1835 -10 22 -28 48
-39 58 -52 46 -47 46 -968 47 -867 0 -871 0 -898 -21 -33 -26 -36 -79 -6 -109
20 -20 33 -20 884 -20 475 0 871 -3 880 -6 14 -5 16 -28 16 -145 l0 -139
-1040 0 c-702 0 -1040 3 -1040 10 0 22 -83 99 -128 118 -73 31 -123 36 -192
18 -34 -9 -64 -16 -66 -16 -2 0 -4 36 -4 80 l0 80 210 0 c197 0 211 1 230 20
30 30 27 83 -6 109 -25 20 -39 21 -278 21 l-251 0 -59 30 c-67 34 -154 40
-223 16 l-40 -14 -6 54 c-11 102 -77 196 -166 237 -58 26 -153 31 -212 12z
m162 -158 c72 -48 69 -12 69 -789 0 -383 3 -704 6 -713 4 -10 21 -23 37 -30
39 -16 80 -3 96 31 8 18 11 185 11 575 0 607 -1 601 62 639 58 35 135 23 183
-30 19 -21 20 -40 25 -597 l5 -575 28 -24 c34 -29 56 -30 90 -4 l26 21 3 392
c3 370 4 394 23 425 41 69 139 88 201 39 43 -33 54 -75 54 -202 l0 -115 -35
-46 c-70 -91 -69 -87 -73 -430 l-3 -311 -47 -14 c-33 -10 -53 -24 -69 -48 -21
-31 -23 -46 -23 -153 0 -87 4 -127 15 -148 17 -33 61 -60 100 -60 l25 0 0
-238 0 -238 -88 -84 c-91 -89 -129 -142 -165 -238 -22 -57 -22 -63 -27 -942
l-5 -885 -460 0 -460 0 -5 925 -5 925 -23 60 c-29 78 -77 149 -144 215 -29 29
-248 237 -485 463 -238 226 -433 417 -433 426 0 75 166 128 266 86 20 -8 95
-73 167 -143 113 -110 139 -130 179 -140 103 -26 209 35 237 135 7 25 11 287
11 758 0 696 1 721 20 752 37 62 124 82 187 43 60 -36 58 -15 63 -637 l5 -572
22 -22 c27 -27 75 -29 103 -4 19 17 20 34 22 736 3 708 3 718 24 746 25 35 79
63 120 63 17 0 46 -10 65 -23z m1214 -1060 c22 -13 49 -40 62 -62 22 -39 23
-48 23 -332 l0 -293 -170 0 -170 0 0 288 c0 283 0 290 23 333 45 84 148 114
232 66z m225 -897 l0 -60 -310 0 -310 0 0 60 0 60 310 0 310 0 0 -60z m-140
-595 l0 -385 -170 0 -170 0 0 385 0 385 170 0 170 0 0 -385z m-464 -1180 c11
-22 33 -62 47 -89 46 -85 45 -86 -88 -86 l-116 0 3 433 3 432 26 55 c14 31 41
73 60 95 l34 38 5 -419 c5 -400 6 -421 26 -459z m464 366 l0 -279 -36 -69
c-49 -91 -63 -134 -75 -223 -9 -76 -23 -100 -60 -100 -32 0 -45 27 -57 112 -9
66 -22 104 -62 184 l-50 101 0 276 0 277 170 0 170 0 0 -279z"/>
<path d="M1285 3020 c-31 -12 -48 -38 -48 -71 0 -45 28 -65 110 -77 192 -27
313 -147 347 -341 15 -89 25 -106 68 -116 22 -6 33 -1 59 24 30 30 31 33 24
94 -21 178 -111 323 -260 416 -81 51 -249 91 -300 71z"/>
<path d="M1575 1580 c-25 -27 -23 -76 3 -102 31 -32 117 -31 143 1 25 30 24
76 -1 101 -28 28 -119 28 -145 0z"/>
<path d="M1941 1574 c-26 -33 -26 -54 -1 -87 25 -32 69 -42 115 -27 39 13 55
35 55 74 0 44 -32 66 -94 66 -47 0 -57 -4 -75 -26z"/>
<path d="M1579 1242 c-33 -28 -30 -78 6 -110 24 -20 36 -23 72 -19 24 2 53 13
63 22 26 24 26 79 0 105 -27 27 -108 28 -141 2z"/>
<path d="M1941 1234 c-24 -30 -26 -43 -10 -78 15 -32 60 -50 107 -43 68 11 95
82 49 125 -18 17 -36 22 -74 22 -44 0 -55 -4 -72 -26z"/>
<path d="M1587 909 c-45 -26 -39 -106 9 -128 68 -31 144 3 144 64 0 49 -31 75
-89 75 -25 0 -54 -5 -64 -11z"/>
<path d="M1943 894 c-20 -20 -24 -31 -19 -57 9 -45 27 -59 85 -65 43 -4 53 -1
75 21 56 56 18 127 -68 127 -37 0 -52 -5 -73 -26z"/>
<path d="M1592 573 c-7 -3 -19 -18 -28 -35 -13 -25 -13 -35 -3 -59 15 -38 37
-49 92 -49 33 0 49 6 65 23 52 55 10 128 -72 126 -22 0 -47 -3 -54 -6z"/>
<path d="M1945 555 c-53 -52 -13 -125 68 -125 87 0 127 71 72 125 -18 19 -35
25 -70 25 -35 0 -52 -6 -70 -25z"/>
<path d="M3686 3851 l-71 -69 -37 33 c-49 45 -82 53 -116 28 -19 -14 -28 -31
-30 -57 -3 -34 2 -43 71 -111 106 -106 110 -106 250 34 105 105 109 111 103
143 -3 18 -16 41 -27 51 -39 32 -66 22 -143 -52z"/>
<path d="M3990 3810 c-25 -25 -26 -71 -1 -101 l19 -24 294 -3 c161 -2 303 0
315 3 30 7 63 44 63 71 0 12 -9 33 -21 48 l-20 26 -315 0 c-301 0 -315 -1
-334 -20z"/>
<path d="M3760 3458 c-14 -5 -53 -37 -87 -71 l-63 -61 -38 37 c-44 43 -90 49
-122 17 -40 -40 -27 -76 53 -157 106 -105 112 -104 250 36 65 65 107 116 107
128 0 25 -34 69 -58 75 -10 3 -29 1 -42 -4z"/>
<path d="M3996 3359 c-36 -28 -36 -80 0 -108 26 -20 38 -21 331 -21 l304 0 24
25 c14 13 25 36 25 50 0 14 -11 37 -25 50 l-24 25 -304 0 c-293 0 -305 -1
-331 -21z"/>
<path d="M3681 2944 l-71 -66 -40 36 c-48 43 -86 47 -118 13 -42 -44 -31 -75
57 -160 43 -42 86 -77 95 -77 10 0 29 6 44 14 42 22 200 189 208 220 10 41
-22 80 -69 84 -32 3 -43 -4 -106 -64z"/>
<path d="M4013 2920 c-44 -18 -57 -86 -23 -120 19 -19 33 -20 334 -20 l315 0
20 26 c34 43 26 86 -20 109 -23 12 -82 15 -316 14 -158 0 -298 -4 -310 -9z"/>
<path d="M3686 2491 l-71 -69 -37 33 c-49 45 -82 53 -116 28 -19 -14 -28 -31
-30 -57 -3 -34 2 -43 71 -111 106 -106 110 -106 250 34 105 105 109 111 103
143 -3 18 -16 41 -27 51 -39 32 -66 22 -143 -52z"/>
<path d="M3990 2450 c-25 -25 -26 -71 -1 -101 l19 -24 298 -3 c318 -3 343 0
363 44 16 35 14 48 -10 78 l-20 26 -315 0 c-301 0 -315 -1 -334 -20z"/>
<path d="M3760 2103 c-8 -3 -45 -35 -82 -71 l-68 -66 -39 38 c-47 46 -94 52
-123 15 -36 -43 -24 -76 55 -156 106 -105 112 -104 250 36 67 68 107 116 107
129 0 42 -62 88 -100 75z"/>
<path d="M3992 1997 c-31 -33 -29 -80 4 -106 26 -20 38 -21 331 -21 l304 0 24
25 c14 13 25 36 25 50 0 14 -11 37 -25 50 l-24 25 -309 0 -309 0 -21 -23z"/>
<path d="M3681 1584 l-71 -66 -40 36 c-66 59 -140 40 -140 -37 0 -29 12 -45
79 -110 43 -42 86 -77 95 -77 10 0 29 6 44 14 42 22 200 189 208 220 10 41
-22 80 -69 84 -32 3 -43 -4 -106 -64z"/>
<path d="M3997 1550 c-34 -27 -37 -80 -7 -110 19 -19 33 -20 334 -20 l315 0
20 26 c26 33 27 65 2 95 l-19 24 -309 3 c-302 3 -310 2 -336 -18z"/>
<path d="M2831 663 c-14 -16 -65 -95 -111 -178 -79 -139 -85 -154 -88 -215 -5
-84 23 -156 81 -205 165 -142 417 -30 418 185 1 70 -13 103 -111 272 -100 173
-133 197 -189 141z m149 -413 c0 -30 -7 -47 -24 -65 -67 -67 -176 -27 -176 66
0 39 13 67 87 188 15 23 16 22 64 -63 37 -64 49 -96 49 -126z"/>
</g>
</svg>
