<?xml version="1.0" standalone="no"?>
<!DOCTYPE svg PUBLIC "-//W3C//DTD SVG 20010904//EN"
 "http://www.w3.org/TR/2001/REC-SVG-20010904/DTD/svg10.dtd">
<svg version="1.0" xmlns="http://www.w3.org/2000/svg"
 width="512.000000pt" height="512.000000pt" viewBox="0 0 512.000000 512.000000"
 preserveAspectRatio="xMidYMid meet">

<g transform="translate(0.000000,512.000000) scale(0.100000,-0.100000)"
fill="#ffffff" stroke="none">
<path d="M2425 4856 c-184 -43 -324 -137 -424 -285 -70 -104 -1924 -3323
-1948 -3383 -60 -149 -67 -303 -19 -453 35 -110 88 -197 171 -280 80 -80 151
-125 257 -163 l73 -27 2025 0 2025 0 73 27 c106 38 177 83 257 163 197 197
256 478 152 733 -24 61 -1878 3279 -1949 3384 -121 180 -312 285 -533 294 -64
2 -122 -1 -160 -10z m253 -151 c123 -29 243 -110 312 -210 46 -67 1900 -3283
1931 -3349 133 -285 -38 -640 -346 -721 -52 -13 -291 -15 -2015 -15 -2156 0
-2008 -4 -2133 62 -157 84 -277 284 -277 463 0 69 24 164 59 233 39 77 1886
3276 1921 3327 118 172 343 258 548 210z"/>
<path d="M2483 4560 c-24 -5 -63 -18 -88 -29 -105 -47 -83 -11 -1095 -1765
-520 -901 -956 -1663 -969 -1694 -34 -78 -34 -192 -1 -277 34 -89 132 -184
219 -213 l65 -22 1946 0 1946 0 65 22 c87 29 185 124 219 213 33 85 33 199 -1
277 -13 31 -449 793 -969 1694 -1038 1800 -992 1727 -1114 1773 -65 24 -164
34 -223 21z m183 -171 c23 -11 53 -34 66 -52 42 -55 1911 -3300 1926 -3342 35
-103 -40 -245 -146 -275 -52 -14 -3852 -14 -3904 0 -101 28 -177 164 -149 265
14 53 1910 3333 1949 3372 62 62 168 76 258 32z"/>
<path d="M2480 3885 l0 -75 80 0 80 0 0 75 0 75 -80 0 -80 0 0 -75z"/>
<path d="M2344 3199 c17 -112 17 -148 2 -218 -22 -103 -62 -183 -151 -301 -83
-110 -147 -234 -168 -325 l-13 -58 -26 59 c-30 68 -48 145 -49 212 -1 85 -9
90 -59 35 -178 -191 -297 -389 -352 -581 -31 -108 -31 -276 0 -384 79 -275
265 -500 517 -626 158 -79 290 -105 520 -106 136 0 193 5 283 22 389 77 643
281 747 597 48 149 70 419 44 547 -10 52 -86 228 -98 228 -4 0 -25 -31 -48
-68 -23 -37 -58 -85 -77 -107 l-34 -40 13 59 c75 325 -55 562 -359 655 -37 12
-71 21 -75 21 -4 0 -4 -26 0 -57 19 -152 3 -370 -31 -423 -9 -13 -11 -13 -20
0 -33 49 -44 127 -45 305 l0 180 -31 65 c-74 153 -266 295 -468 346 l-29 7 7
-44z m218 -220 c58 -37 109 -95 137 -155 19 -39 20 -60 18 -206 -1 -111 2
-181 12 -218 22 -90 78 -194 142 -262 l59 -63 41 45 c79 87 136 236 146 383 3
48 9 87 12 87 13 0 89 -85 105 -118 9 -18 21 -58 27 -89 20 -108 -26 -304
-111 -473 -23 -45 -39 -84 -37 -87 3 -2 43 1 88 7 100 13 164 42 239 104 l55
46 3 -62 c4 -81 -14 -229 -39 -321 -77 -277 -310 -464 -649 -521 -504 -86
-889 75 -1078 449 -76 152 -97 298 -64 435 20 81 109 276 151 329 l18 24 34
-64 c40 -77 136 -175 242 -247 86 -59 86 -60 62 48 -19 86 -19 202 0 275 22
83 65 163 152 279 41 55 85 120 98 145 28 57 75 204 75 237 0 31 3 30 62 -7z"/>
<path d="M2490 1800 l0 -210 80 0 80 0 0 210 0 210 -80 0 -80 0 0 -210z"/>
<path d="M2497 1434 c-4 -4 -7 -38 -7 -76 l0 -68 80 0 81 0 -3 73 -3 72 -70 3
c-39 1 -74 0 -78 -4z"/>
<path d="M910 1060 l0 -81 73 3 72 3 0 75 0 75 -72 3 -73 3 0 -81z"/>
<path d="M4034 1126 c-3 -7 -4 -42 -2 -77 l3 -64 73 -3 72 -3 0 81 0 80 -70 0
c-50 0 -72 -4 -76 -14z"/>
</g>
</svg>
