<?xml version="1.0" standalone="no"?>
<!DOCTYPE svg PUBLIC "-//W3C//DTD SVG 20010904//EN"
 "http://www.w3.org/TR/2001/REC-SVG-20010904/DTD/svg10.dtd">
<svg version="1.0" xmlns="http://www.w3.org/2000/svg"
 width="512.000000pt" height="512.000000pt" viewBox="0 0 512.000000 512.000000"
 preserveAspectRatio="xMidYMid meet">

<g transform="translate(0.000000,512.000000) scale(0.100000,-0.100000)"
fill="#adb9c5" stroke="none">
<path d="M1695 5101 c-43 -20 -216 -213 -482 -537 -121 -149 -143 -180 -143
-209 0 -24 7 -39 26 -54 57 -45 65 -38 310 259 203 245 346 409 359 409 19 2
134 -125 366 -404 260 -311 478 -599 671 -885 123 -183 288 -451 288 -469 0
-6 -43 -67 -96 -137 -409 -544 -687 -1036 -780 -1378 -59 -220 -33 -505 70
-764 20 -49 36 -94 36 -99 0 -13 -148 -57 -265 -80 -140 -27 -455 -24 -595 6
-432 92 -794 333 -1032 686 -178 265 -278 585 -278 897 0 350 261 896 756
1581 99 137 110 165 76 206 -20 26 -73 31 -98 11 -22 -19 -172 -227 -293 -408
-149 -222 -261 -413 -361 -617 -228 -462 -275 -745 -189 -1144 141 -650 653
-1177 1304 -1339 156 -39 227 -47 430 -46 220 0 303 11 486 65 57 16 113 32
124 35 16 4 30 -9 70 -67 157 -230 435 -439 718 -538 506 -178 1090 -52 1478
317 98 92 223 245 246 300 17 41 1 82 -38 96 -48 17 -71 1 -148 -104 -237
-322 -588 -512 -993 -536 -569 -35 -1116 329 -1311 872 -74 206 -95 470 -49
629 123 425 506 1041 1089 1751 189 230 203 247 207 243 2 -2 68 -83 148 -179
737 -891 1167 -1631 1168 -2010 0 -88 -17 -218 -41 -312 -10 -42 -19 -88 -19
-102 0 -56 73 -86 119 -48 40 32 91 292 91 460 0 316 -244 824 -705 1467 -165
230 -401 530 -612 777 -90 105 -113 118 -188 104 -37 -7 -92 -66 -317 -343
-56 -68 -102 -122 -104 -120 -2 1 -35 56 -75 122 -255 423 -659 960 -1117
1482 -129 148 -164 173 -235 173 -17 0 -50 -9 -72 -19z"/>
<path d="M1620 3342 c-64 -32 -75 -65 -79 -254 l-3 -168 -167 0 c-188 0 -219
-10 -247 -75 -21 -52 -19 -249 4 -294 35 -69 54 -76 242 -79 l168 -4 4 -167
c4 -185 9 -204 71 -241 27 -17 51 -20 157 -20 106 0 130 3 157 20 62 37 67 56
71 241 l4 167 168 4 c188 3 207 10 242 79 23 45 25 242 4 294 -28 65 -59 75
-247 75 l-167 0 -3 168 c-4 146 -7 171 -24 202 -33 57 -72 70 -205 70 -90 0
-123 -4 -150 -18z m221 -294 c0 -180 9 -220 52 -252 26 -19 44 -21 208 -24
l179 -4 0 -74 0 -74 -184 0 c-170 0 -185 -2 -209 -20 -38 -30 -47 -77 -47
-252 l0 -158 -70 0 -70 0 0 158 c0 175 -9 222 -47 252 -24 18 -39 20 -209 20
l-184 0 0 74 0 74 179 4 c257 4 260 7 260 276 l1 162 70 0 70 0 1 -162z"/>
<path d="M3059 1796 c-56 -38 -72 -86 -67 -204 3 -108 13 -133 72 -176 27 -21
37 -21 586 -21 549 0 559 0 586 21 59 44 69 67 72 178 4 120 -13 169 -71 205
-34 21 -43 21 -588 21 l-554 0 -36 -24z m1101 -191 l0 -65 -510 0 -510 0 0 65
0 65 510 0 510 0 0 -65z"/>
</g>
</svg>
