<?xml version="1.0" encoding="UTF-8"?><svg xmlns="http://www.w3.org/2000/svg" viewBox="0 0 99.75 61.9"><g id="a"/><g id="b"><g id="c"><g><path class="d" d="M15.6,50.04c-1.12-1.12-1.73-2.6-1.73-4.18V28.83c0-1.88,.91-3.66,2.4-4.75l5.26-3.65h.02s.06-.06,.09-.09c.04-.04,.09-.07,.13-.11,.03-.03,.05-.06,.08-.1,.04-.04,.08-.09,.11-.14,.02-.03,.04-.07,.05-.1,.03-.05,.06-.1,.08-.15,.01-.04,.02-.08,.03-.11,.02-.05,.04-.11,.05-.16,0-.04,0-.08,.01-.12,0-.06,.01-.11,.01-.17,0-.04,0-.08-.01-.12,0-.06,0-.12-.02-.17,0-.04-.02-.07-.03-.11-.02-.06-.03-.11-.05-.17-.01-.03-.04-.07-.05-.1-.03-.05-.05-.11-.09-.16-1.39-2.05-2.12-4.45-2.12-6.94,0-3.34,1.31-6.48,3.69-8.83,.28-.27,.46-.65,.46-1.08C23.96,.68,23.29,0,22.47,0H5.1c-2.81,0-5.1,2.29-5.1,5.1V56.76c0,2.81,2.29,5.1,5.1,5.1h13.34c.83,0,1.5-.67,1.5-1.5v-5.35c0-.4-.16-.78-.44-1.06l-3.91-3.91Zm1.35,8.82H5.1c-1.16,0-2.1-.94-2.1-2.1V5.1c0-1.16,.94-2.1,2.1-2.1h14.21c-1.62,2.48-2.5,5.37-2.5,8.41,0,2.59,.65,5.1,1.87,7.34l-4.15,2.88c-2.29,1.67-3.66,4.36-3.66,7.2v17.04c0,2.38,.93,4.61,2.61,6.3l3.47,3.47v3.23Z"/><path class="d" d="M94.65,0H42.21c-.83,0-1.5,.67-1.5,1.5,0,.05,0,.09,.01,.14-.02,.41,.1,.82,.41,1.13,2.26,2.33,3.5,5.4,3.5,8.64,0,2.17-.57,4.31-1.64,6.18,0,.01-.01,.03-.02,.04-.03,.05-.05,.1-.07,.15-.02,.04-.03,.08-.05,.12-.02,.05-.02,.1-.03,.15,0,.05-.02,.09-.02,.14,0,.05,0,.1,0,.15,0,.05,0,.09,0,.14,0,.05,.01,.1,.02,.14,0,.05,.02,.09,.03,.14,.01,.05,.03,.09,.05,.14,.02,.04,.03,.09,.06,.13,.02,.04,.05,.08,.07,.12,.03,.04,.05,.09,.09,.13,.03,.03,.06,.07,.09,.1,.04,.04,.08,.08,.12,.12,.01,0,.02,.02,.03,.03l7.41,5.81c.53,.42,1.28,.43,1.82,.02l6.88-5.11c3.16-2.35,7.55-1.77,9.99,1.32,2.37,3,1.99,7.34-.86,9.88l-15,13.22-5.67-3.18c-.46-.26-1.03-.26-1.49,.01-.46,.27-.74,.76-.74,1.29v17.58c0,.83,.67,1.5,1.5,1.5h47.45c2.81,0,5.1-2.29,5.1-5.1V5.1c0-2.81-2.29-5.1-5.1-5.1Zm2.1,56.76c0,1.16-.94,2.1-2.1,2.1H48.7v-13.52l4.37,2.45c.55,.31,1.25,.24,1.73-.18l15.8-13.93c4.04-3.6,4.58-9.74,1.23-13.99-3.45-4.37-9.66-5.19-14.13-1.87l-5.96,4.43-5.54-4.34c.94-2.03,1.45-4.25,1.45-6.51,0-3.02-.87-5.92-2.49-8.41h49.51c1.16,0,2.1,.94,2.1,2.1V56.76Z"/><path class="d" d="M32.22,21.55c5.6,0,10.15-4.55,10.15-10.15S37.82,1.26,32.22,1.26s-10.15,4.55-10.15,10.15,4.55,10.15,10.15,10.15Zm0-17.3c3.94,0,7.15,3.21,7.15,7.15s-3.21,7.15-7.15,7.15-7.15-3.21-7.15-7.15,3.21-7.15,7.15-7.15Z"/><path class="d" d="M54.03,41.28l12.44-10.3c2.17-1.81,2.5-5.08,.73-7.29-1.78-2.21-5.04-2.59-7.28-.86l-8.19,6.35-10.21-6.8c-.39-.26-.88-.32-1.32-.17-5.29,1.81-10.5,1.81-15.5,0-.48-.17-1.02-.09-1.42,.22l-4.19,3.22c-1.67,1.29-2.67,3.31-2.67,5.42v14.01c0,1.81,.7,3.51,1.96,4.8l3.1,3.15v7.35c0,.83,.67,1.5,1.5,1.5h18.99c.83,0,1.5-.67,1.5-1.5v-25.07l8.75,6.03c.55,.38,1.29,.35,1.81-.08Zm-11.21-10.04c-.46-.32-1.05-.35-1.55-.09-.49,.26-.8,.77-.8,1.33v26.42h-15.99v-6.47c0-.39-.16-.77-.43-1.05l-3.54-3.59c-.71-.72-1.1-1.68-1.1-2.69v-14.01c0-1.18,.56-2.32,1.5-3.04l3.55-2.73c5.19,1.69,10.57,1.68,16-.03l10.5,7c.54,.36,1.24,.33,1.75-.06l9.05-7.01c.96-.74,2.35-.58,3.1,.37,.76,.94,.62,2.33-.3,3.1l-11.56,9.57-10.17-7Z"/></g></g></g></svg>