<svg id="Capa_1" data-name="Capa 1" xmlns="http://www.w3.org/2000/svg" viewBox="0 0 133 133"><defs><style>.cls-1</style></defs><g id="Capa_2" data-name="Capa 2"><path class="cls-1" d="M52.71,62.81a1.81,1.81,0,0,1,0-3.62h8a1.81,1.81,0,0,1,0,3.62H58.92a2.07,2.07,0,1,1-4.14,0Zm21.47,0a2.07,2.07,0,1,0,4.13,0h1.81a1.81,1.81,0,0,0,0-3.62h-8a1.81,1.81,0,0,0,0,3.62Zm52.49,65.94h-.26a2.45,2.45,0,0,1-2.33-2.07s-1.29-8.53-7.76-11.89c-6.2-3.11-20.94-3.62-25.85-3.37a1.61,1.61,0,0,1-1-.25l-8.27-3.88-11.9,9.31v8.27a2.32,2.32,0,0,1-2.32,2.33h0a2.32,2.32,0,0,1-2.33-2.33V116.6l-11.9-9.31-8.27,3.88a1.6,1.6,0,0,1-1,.25h-1.3a7.53,7.53,0,0,1,5.17,7.24,7.76,7.76,0,1,1-15.51,0,7.93,7.93,0,0,1,4.91-7.24c-5.94.26-14.48,1-19.13,3.37-6.47,3.36-7.76,11.89-7.76,11.89A3,3,0,0,1,7,128.75H6.69a2.52,2.52,0,0,1-2.07-2.59c0-.51,1.55-10.86,10.08-15.25C22.46,106.77,39,107,42.37,107l9.05-4.14a2.42,2.42,0,0,1,2.33.26L66.42,113l12.67-9.83a2.5,2.5,0,0,1,2.33-.26l9,4.14c3.36,0,19.91-.26,27.66,3.88,8.8,4.39,10.09,15,10.09,15.25A1.85,1.85,0,0,1,126.67,128.75ZM39,115.82a2.85,2.85,0,1,0,2.84,2.84A2.86,2.86,0,0,0,39,115.82ZM95.64,28.94a2.59,2.59,0,0,1-2.59,2.58H76.76A10.56,10.56,0,0,1,66.42,39.8a10.73,10.73,0,0,1-10.34-8.28H40.82a2.59,2.59,0,1,1,0-5.17H56.33a10.35,10.35,0,0,1,20.17,0H92.79C94.6,26.61,95.64,27.65,95.64,28.94Zm-23.53.26a5.43,5.43,0,1,0-5.43,5.43A5.46,5.46,0,0,0,72.11,29.2ZM28.41,44.45V23.25A18.76,18.76,0,0,1,47.28,4.63H86.07A18.77,18.77,0,0,1,105,23.25v21.2a5.19,5.19,0,0,1-5.18,5.18H33.58A5.19,5.19,0,0,1,28.41,44.45Zm5.17,0H99.77V23.25a13.79,13.79,0,0,0-13.7-13.7H47.28a13.79,13.79,0,0,0-13.7,13.7v21.2Zm1.55,9.31v7h.26a4.22,4.22,0,0,1,4.14,3.88,58.42,58.42,0,0,0,2.58,11.64C45,76,51.94,75.48,54.52,75a49.77,49.77,0,0,0,10.86-3.11l.78-.26.78.26s6.2,1.55,12.15,2.59c2.33.52,8.53,1,12.15,1.29a44.53,44.53,0,0,0,2.33-11.12,4.42,4.42,0,0,1,4.14-3.88H98v-7a2.59,2.59,0,0,1,5.18,0v8A4.09,4.09,0,0,1,99,65.92h-.52A66.09,66.09,0,0,1,93.57,83.5c-5.69,12.41-14.74,19.13-26.38,19.13a2,2,0,0,1-1-.26c-.26,0-.52.26-1,.26-11.64,0-20.69-6.72-26.38-19.13a68.73,68.73,0,0,1-4.91-17.58h-.52a4.09,4.09,0,0,1-4.14-4.14v-8a2.59,2.59,0,0,1,2.59-2.58C33.84,51.18,35.13,52.47,35.13,53.76Zm9,27.41a.25.25,0,0,0,.26.26c4.91,10.6,12.15,16,21.72,16a1.92,1.92,0,0,1,1,.26c.26,0,.52-.26,1-.26,11.63,0,18.36-8.53,22-16.81a97.85,97.85,0,0,1-11.38-1.29c-4.65-1-9.57-2.07-11.38-2.58a90.43,90.43,0,0,1-11.12,3.1C53,80.4,47.54,80.91,44.18,81.17Z"/></g></svg>